<svg width="158" height="24" viewBox="0 0 158 24" fill="none" xmlns="http://www.w3.org/2000/svg">
<path d="M0 23.3455H6.05613V16.4509L8.52184 13.8764L14.2319 23.3455H21.629L12.7179 9.51273L21.1964 0.654545H14.0589L6.05613 9.81818V0.654545H0V23.3455Z" fill="white"/>
<path d="M45.666 23.3455H51.7221V11.5636C51.7221 6.98182 53.4524 5.01818 56.6968 5.01818C59.5085 5.01818 60.59 6.76364 60.59 10.6909V23.3455H66.6461V9.38182C66.6461 4.14545 64.9158 0 58.6434 0C53.6687 0 51.7221 4.36364 51.7221 4.36364H51.5058V0.654545H45.666V23.3455Z" fill="white"/>
<path d="M89.7959 0.654545H83.7398V12.4364C83.7398 17.0182 82.0095 18.9818 78.7651 18.9818C75.9533 18.9818 74.8719 17.2364 74.8719 13.3091V0.654545H68.8158V14.6182C68.8158 19.8545 70.5461 24 76.8185 24C81.7932 24 83.7398 19.6364 83.7398 19.6364H83.9561V23.3455H89.7959V0.654545Z" fill="white"/>
<path d="M91.3167 23.3455H97.4593L102.65 7.24364L107.841 23.3455H114.33L106.241 0.654545H99.406L91.3167 23.3455Z" fill="white"/>
<path d="M115.834 23.3455H121.89V16.4509L124.355 13.8764L130.065 23.3455H137.463L128.551 9.51273L137.03 0.654545H129.892L121.89 9.81818V0.654545H115.834V23.3455Z" fill="white"/>
<path d="M144.157 7.63636C144.244 5.19273 145.671 4.14545 148.267 4.14545C150.646 4.14545 151.944 5.19273 151.944 6.98182C151.944 9.51273 148.397 9.81818 144.633 10.7782C140.913 11.7382 137.452 13.6582 137.452 17.8909C137.452 22.08 140.48 24 144.59 24C150.343 24 151.728 18.9818 151.728 18.9818H151.944V23.3455H158V7.85455C158 1.96364 153.674 0 148.267 0C143.076 0 138.447 1.83273 138.101 7.63636H144.157ZM151.944 11.9127C151.944 15.2727 150.862 20.0727 146.753 20.0727C144.806 20.0727 143.595 18.9818 143.595 17.2364C143.595 15.2291 145.239 14.2255 147.185 13.7455C148.916 13.3091 150.949 12.8291 151.944 11.9127Z" fill="white"/>
<path d="M33.8462 0.474309C26.3808 0.474309 21.0178 6.16774 21.0178 14.1131C21.0178 20.2739 24.8363 23.7154 31.1003 23.7154C39.1663 23.7154 44.0574 17.5971 44.0574 9.99169C44.0574 4.00084 40.2818 0.474309 33.8462 0.474309ZM33.5887 4.89309C36.3775 4.89309 38.0079 6.72009 38.0079 9.82174C38.0079 13.5607 36.2059 19.2966 31.5722 19.2966C28.6976 19.2966 27.0244 17.4696 27.0244 14.2405C27.0244 9.01446 29.9419 4.89309 33.5887 4.89309Z" fill="white"/>
</svg>
