<svg width="211" height="32" viewBox="0 0 211 32" fill="none" xmlns="http://www.w3.org/2000/svg">
<path d="M0 31.1273H8.08761V21.9345L11.3804 18.5018L19.0059 31.1273H28.8843L16.984 12.6836L28.3066 0.872727H18.7748L8.08761 13.0909V0.872727H0V31.1273Z" fill="white"/>
<path d="M60.9843 31.1273H69.0719V15.4182C69.0719 9.30909 71.3826 6.69091 75.7153 6.69091C79.4703 6.69091 80.9145 9.01818 80.9145 14.2545V31.1273H89.0021V12.5091C89.0021 5.52727 86.6913 0 78.3149 0C71.6715 0 69.0719 5.81818 69.0719 5.81818H68.7831V0.872727H60.9843V31.1273Z" fill="white"/>
<path d="M119.917 0.872727H111.83V16.5818C111.83 22.6909 109.519 25.3091 105.186 25.3091C101.431 25.3091 99.9872 22.9818 99.9872 17.7455V0.872727H91.8995V19.4909C91.8995 26.4727 94.2103 32 102.587 32C109.23 32 111.83 26.1818 111.83 26.1818H112.119V31.1273H119.917V0.872727Z" fill="white"/>
<path d="M121.948 31.1273H130.151L137.084 9.65818L144.016 31.1273H152.681L141.878 0.872727H132.751L121.948 31.1273Z" fill="white"/>
<path d="M154.689 31.1273H162.777V21.9345L166.07 18.5018L173.695 31.1273H183.573L171.673 12.6836L182.996 0.872727H173.464L162.777 13.0909V0.872727H154.689V31.1273Z" fill="white"/>
<path d="M192.514 10.1818C192.63 6.92364 194.536 5.52727 198.002 5.52727C201.179 5.52727 202.912 6.92364 202.912 9.30909C202.912 12.6836 198.175 13.0909 193.15 14.3709C188.181 15.6509 183.56 18.2109 183.56 23.8545C183.56 29.44 187.604 32 193.092 32C200.775 32 202.624 25.3091 202.624 25.3091H202.912V31.1273H211V10.4727C211 2.61818 205.223 0 198.002 0C191.07 0 184.889 2.44364 184.426 10.1818H192.514ZM202.912 15.8836C202.912 20.3636 201.468 26.7636 195.98 26.7636C193.381 26.7636 191.763 25.3091 191.763 22.9818C191.763 20.3055 193.958 18.9673 196.558 18.3273C198.869 17.7455 201.584 17.1055 202.912 15.8836Z" fill="white"/>
<path d="M45.1996 0.632412C35.2301 0.632412 28.068 8.22366 28.068 18.8174C28.068 27.0318 33.1674 31.6206 41.5327 31.6206C52.3044 31.6206 58.8361 23.4628 58.8361 13.3223C58.8361 5.33445 53.7941 0.632412 45.1996 0.632412ZM44.8558 6.52412C48.5801 6.52412 50.7574 8.96012 50.7574 13.0956C50.7574 18.0809 48.3509 25.7288 42.1629 25.7288C38.3241 25.7288 36.0895 23.2928 36.0895 18.9874C36.0895 12.0193 39.9857 6.52412 44.8558 6.52412Z" fill="white"/>
</svg>
